<svg height="512pt" viewBox="-64 0 512 512" width="512pt" xmlns="http://www.w3.org/2000/svg"><path d="m47.191406 63.664062h-15.136718c0-23.191406 18.90625-31.609374 31.609374-31.609374h24.042969v15.136718h-24.042969c.007813 0-4.65625.097656-8.996093 2.394532-5.101563 2.699218-7.476563 7.171874-7.476563 14.078124zm0 0"/><path d="m32.054688 111.75h15.136718v16.027344h-15.136718zm0 0"/><path d="m336.582031 416.277344h15.136719v16.027344h-15.136719zm0 0"/><path d="m336.582031 352.167969h15.136719v16.027343h-15.136719zm0 0"/><path d="m328.125 0h-272.472656c-30.6875 0-55.652344 24.964844-55.652344 55.652344v104.179687h15.136719v-104.179687c0-22.339844 18.175781-40.515625 40.515625-40.515625h272.472656c22.339844 0 40.515625 18.175781 40.515625 40.515625v344.597656h15.136719v-344.597656c0-30.6875-24.964844-55.652344-55.652344-55.652344zm0 0"/><path d="m368.640625 494.175781-40.515625-40.515625-43.203125 43.203125h-1.746094l-43.203125-43.203125-43.207031 43.203125h-1.742187l-43.203126-43.203125-43.207031 43.203125h-1.742187l-43.207032-43.203125-43.203124 43.203125h-5.324219v-312.988281h-15.136719v328.125h26.730469l36.933593-36.933594 36.9375 36.933594h14.28125l36.9375-36.933594 36.933594 36.933594h14.28125l36.9375-36.933594 36.933594 36.933594h14.285156l36.933594-36.933594 36.933594 36.933594h18.71875v-87.707031h-15.136719zm0 0"/><path d="m32.054688 79.695312h15.136718v16.027344h-15.136718zm0 0"/><path d="m336.582031 384.222656h15.136719v16.027344h-15.136719zm0 0"/><path d="m227.449219 146.410156c-12.308594 12.066406-19.085938 28.21875-19.085938 45.476563 0 35.105469 28.558594 63.667969 63.664063 63.667969 34.113281 0 61.921875-26.554688 63.476562-60.515626.09375-.9375.1875-2.023437.1875-3.148437 0-1.128906-.09375-2.210937-.1875-3.148437-1.554687-33.964844-29.363281-60.519532-63.476562-60.519532-9.546875 0-18.726563 2.058594-27.285156 6.117188l6.488281 13.675781c6.511719-3.089844 13.511719-4.65625 20.796875-4.65625 14.96875 0 28.335937 6.714844 37.214844 17.34375-1.679688-.273437-3.402344-.421875-5.160157-.421875-17.425781 0-31.609375 14.179688-31.609375 31.609375s14.183594 31.609375 31.609375 31.609375c1.757813 0 3.480469-.152344 5.160157-.421875-8.878907 10.628906-22.246094 17.339844-37.214844 17.339844-26.757813 0-48.527344-21.769531-48.527344-48.527344 0-13.160156 5.164062-25.472656 14.542969-34.667969zm60.160156 45.476563c0-9.082031 7.390625-16.472657 16.472656-16.472657 8.488281 0 15.515625 6.335938 16.351563 14.738282.042968.429687.121094 1.230468.121094 1.734375 0 .507812-.078126 1.304687-.121094 1.738281-.835938 8.402344-7.863282 14.738281-16.351563 14.738281-9.082031 0-16.472656-7.390625-16.472656-16.476562zm0 0"/><path d="m175.226562 188.761719c-1.546874-33.972657-29.359374-60.539063-63.476562-60.539063-35.105469 0-63.667969 28.5625-63.667969 63.667969s28.5625 63.664063 63.667969 63.664063c34.125 0 61.941406-26.574219 63.476562-60.554688.101563-.988281.1875-2.042969.1875-3.109375 0-1.074219-.089843-2.136719-.1875-3.128906zm-15.070312 4.863281c-.835938 8.402344-7.863281 14.738281-16.351562 14.738281-9.082032 0-16.472657-7.390625-16.472657-16.476562 0-9.082031 7.390625-16.472657 16.472657-16.472657 8.488281 0 15.515624 6.335938 16.351562 14.738282v.003906c.042969.425781.121094 1.222656.121094 1.730469 0 .511719-.078125 1.304687-.121094 1.738281zm-48.40625 46.792969c-26.761719 0-48.53125-21.769531-48.53125-48.53125 0-26.757813 21.769531-48.527344 48.53125-48.527344 14.96875 0 28.335938 6.714844 37.214844 17.34375-1.679688-.273437-3.402344-.425781-5.160156-.425781-17.429688 0-31.609376 14.179687-31.609376 31.609375 0 17.429687 14.179688 31.613281 31.609376 31.613281 1.757812 0 3.480468-.152344 5.160156-.425781-8.878906 10.628906-22.246094 17.34375-37.214844 17.34375zm0 0"/><path d="m79.691406 327.679688h24.488282v24.488281h15.136718v-24.488281h145.144532v24.488281h15.132812v-24.488281h24.488281v-15.136719h-224.390625zm0 0"/></svg>